<svg xmlns="http://www.w3.org/2000/svg" viewBox="0 0 524 96"><g stroke="#fff" stroke-width="3.5" opacity=".5"><path d="M116.62 70.92Q114 68.46 114 63.21a31.23 31.23 0 0 1 1.76-9.73 23 23 0 0 1 5.63-9.18 13.28 13.28 0 0 1 9.82-3.88q3.84 0 5.48 1.67a5.82 5.82 0 0 1 1.63 4.22 5.46 5.46 0 0 1-1 3.46 3 3 0 0 1-2.39 1.23 4 4 0 0 1-2.24-.76 11.29 11.29 0 0 0 .77-3.78 3.54 3.54 0 0 0-.45-1.92 1.49 1.49 0 0 0-1.35-.7q-1.92 0-3.84 3.13a29.17 29.17 0 0 0-3.13 7.62 31.09 31.09 0 0 0-1.22 8.06c0 2.09.36 3.51 1.09 4.26a4.76 4.76 0 0 0 3.52 1.09 10.69 10.69 0 0 0 5.92-1.6 29 29 0 0 0 5.41-4.87h2.17q-7.1 11.85-17.6 11.84c-3.15.01-5.61-.81-7.36-2.45z"/><path d="M141.52 72.2a7.81 7.81 0 0 1-3.14-3.07 8.18 8.18 0 0 1-1-3.94 6.75 6.75 0 0 1 1-3.68 6.1 6.1 0 0 1 2.4-2.27 82.41 82.41 0 0 0 4.35-9.06q1.86-4.57 3.52-9.88l9.44-1.3q.33 8.19 1.09 17.72c.22 2.56.32 4.42.32 5.57a9.7 9.7 0 0 1-.25 2.43 25.55 25.55 0 0 0 4.6-3.2h2.69a37.17 37.17 0 0 1-9.79 8 11 11 0 0 1-4.58 2.92 17 17 0 0 1-5.47.92 10.44 10.44 0 0 1-5.18-1.16zm7.1-5.28q1.6-1.41 1.6-4.54a53.53 53.53 0 0 0-.38-5.38c-.43-4.86-.71-8.13-.83-9.79a74.73 74.73 0 0 1-5.19 12.09 2.43 2.43 0 0 1 1.47 2.24 3.27 3.27 0 0 1-.8 2.18 2.5 2.5 0 0 1-2 1 1.71 1.71 0 0 1-1.73-.83 5.16 5.16 0 0 0 .93 3.39 3.69 3.69 0 0 0 3 1.09 5.78 5.78 0 0 0 3.93-1.45z"/><path d="M166 72.2a7.75 7.75 0 0 1-3.14-3.07 8.18 8.18 0 0 1-1-3.94 6.75 6.75 0 0 1 1-3.68 6.1 6.1 0 0 1 2.4-2.27 82.41 82.41 0 0 0 4.35-9.06q1.86-4.57 3.52-9.88l9.41-1.3q.32 8.19 1.09 17.72c.21 2.56.32 4.42.32 5.57a10 10 0 0 1-2 6.4 11.2 11.2 0 0 1-4.9 3.59 16.92 16.92 0 0 1-5.92 1.08A10.42 10.42 0 0 1 166 72.2zm7.1-5.28q1.6-1.41 1.6-4.54a53.53 53.53 0 0 0-.38-5.38c-.43-4.86-.71-8.13-.84-9.79a73.69 73.69 0 0 1-5.18 12.09 2.43 2.43 0 0 1 1.47 2.24 3.32 3.32 0 0 1-.8 2.18 2.5 2.5 0 0 1-2 1c-.9 0-1.48-.28-1.73-.83a5.16 5.16 0 0 0 .93 3.39 3.68 3.68 0 0 0 3 1.09 5.79 5.79 0 0 0 3.9-1.45zm13.35-13.18h12.8l-1.09 5h-12.87zM220 71.3a7.54 7.54 0 0 1-1.82-5.15 16.05 16.05 0 0 1 .32-3c.21-1.13.44-2.23.67-3.29s.39-1.75.48-2c.34-1.49.66-3 1-4.42a18.19 18.19 0 0 0 .45-3.52c0-2.17-.77-3.26-2.31-3.26a3.68 3.68 0 0 0-2.94 1.63 12.62 12.62 0 0 0-2 4.26L209.42 73h-9.22l9.28-43.52L219 28.2l-3.5 16.13a9.76 9.76 0 0 1 7.5-3.59 7.27 7.27 0 0 1 5.18 1.8q1.92 1.78 1.92 5.44a21.36 21.36 0 0 1-.45 4.12 93.34 93.34 0 0 1-1.28 5.54 97.26 97.26 0 0 0-.92 3.87 14.6 14.6 0 0 0-.42 3 3 3 0 0 0 .58 2 2.42 2.42 0 0 0 2 .71 3.8 3.8 0 0 0 3.07-1.38 16.21 16.21 0 0 0 2.32-4.3h2.68q-2.35 7-5.47 9.44a10.39 10.39 0 0 1-6.43 2.4q-3.94 0-5.78-2.08z"/><path d="M236.81 70.82q-2.75-2.43-2.75-7.68a30.61 30.61 0 0 1 1.79-9.66 23 23 0 0 1 5.76-9.18 13.69 13.69 0 0 1 10-3.88q8.19 0 8.19 10.24v.07a2.72 2.72 0 0 0 .7.06 13.14 13.14 0 0 0 4.87-1.12 24.12 24.12 0 0 0 5-2.72l.57 1.73a15.24 15.24 0 0 1-4.85 3.32 24.77 24.77 0 0 1-6.49 2 29.1 29.1 0 0 1-2.6 10.17 17.31 17.31 0 0 1-5.44 6.72 12.22 12.22 0 0 1-7.23 2.37 10.88 10.88 0 0 1-7.52-2.44zm13.12-5.08a15.84 15.84 0 0 0 2.69-4.8 30.83 30.83 0 0 0 1.66-6.76c-1.15-.25-1.72-1.15-1.72-2.68a3.36 3.36 0 0 1 2-3.46 6.64 6.64 0 0 0-.64-2.91 2 2 0 0 0-1.79-.8q-2.12 0-4.1 3.07a27.23 27.23 0 0 0-3.2 7.36 28.17 28.17 0 0 0-1.21 7.55c0 2 .23 3.43.7 4.13a2.86 2.86 0 0 0 2.56 1.06 4.25 4.25 0 0 0 3.05-1.76z"/><path d="M296.24 71.3a7.5 7.5 0 0 1-1.83-5.15 16.92 16.92 0 0 1 .32-3c.21-1.13.44-2.23.67-3.29s.4-1.75.48-2c.34-1.49.66-3 1-4.42a18.19 18.19 0 0 0 .45-3.52c0-2.17-.77-3.26-2.3-3.26A3.71 3.71 0 0 0 292 48.2a12.62 12.62 0 0 0-2 4.26L285.64 73h-9.21l4.67-22.08a6.43 6.43 0 0 0 .19-1.6q0-2.82-1.92-2.82a3.88 3.88 0 0 0-3.1 1.64 11.92 11.92 0 0 0-2.08 4.32L269.84 73h-9.22l6.78-32h9.22l-.7 3.33a10.11 10.11 0 0 1 7.8-3.65q5.64 0 6.6 5.5 3.51-5.43 8.89-5.44a7.28 7.28 0 0 1 5.19 1.8q1.92 1.78 1.92 5.44a21.36 21.36 0 0 1-.45 4.12c-.3 1.52-.73 3.36-1.28 5.54q-.51 2-.93 3.87a14.6 14.6 0 0 0-.42 3 3.07 3.07 0 0 0 .58 2 2.42 2.42 0 0 0 2 .71 3.82 3.82 0 0 0 3.08-1.38 16.53 16.53 0 0 0 2.3-4.26h2.69q-2.37 7-5.47 9.44a10.42 10.42 0 0 1-6.44 2.4q-3.92-.04-5.74-2.12z"/><path d="M313 70.82q-2.76-2.43-2.76-7.68a30.37 30.37 0 0 1 1.8-9.66 22.74 22.74 0 0 1 5.76-9.18 13.67 13.67 0 0 1 10-3.88q8.19 0 8.19 10.24v.07a2.76 2.76 0 0 0 .71.06 13.13 13.13 0 0 0 4.86-1.12 23.87 23.87 0 0 0 5-2.72l.58 1.73a15.47 15.47 0 0 1-4.82 3.32 24.84 24.84 0 0 1-6.5 2 29.1 29.1 0 0 1-2.62 10.18 17.39 17.39 0 0 1-5.44 6.72 12.22 12.22 0 0 1-7.24 2.37 10.85 10.85 0 0 1-7.52-2.45zm13.12-5.08a15.84 15.84 0 0 0 2.68-4.8 30.82 30.82 0 0 0 1.67-6.76c-1.15-.25-1.73-1.15-1.73-2.68a3.36 3.36 0 0 1 2-3.46 6.5 6.5 0 0 0-.64-2.91 2 2 0 0 0-1.79-.8q-2.11 0-4.09 3.07a26.93 26.93 0 0 0-3.2 7.36 27.83 27.83 0 0 0-1.22 7.55c0 2 .23 3.43.7 4.13a2.87 2.87 0 0 0 2.56 1.06 4.26 4.26 0 0 0 3.1-1.76z"/><path d="M345.48 87.4a5.51 5.51 0 0 1-2-4.61 7 7 0 0 1 2.94-5.85 25.28 25.28 0 0 1 7.49-3.68l.77-3.4a10.15 10.15 0 0 1-7.68 3.52 8.14 8.14 0 0 1-6.08-2.49q-2.44-2.51-2.44-7.81a29.19 29.19 0 0 1 1.89-9.95A23 23 0 0 1 346 44.3a12.43 12.43 0 0 1 8.93-3.62 6.87 6.87 0 0 1 3.91.9 2.75 2.75 0 0 1 1.28 2.36v.39l.7-3.33H370l-6.34 29.7a11.37 11.37 0 0 0 4.93-3.08 16.45 16.45 0 0 0 3.13-6.08h2.69q-1.73 5.7-4.67 8.36a15.64 15.64 0 0 1-6.66 3.61l-1 4.61q-1.28 6.21-4.41 8.54A11.58 11.58 0 0 1 350.6 89a8.07 8.07 0 0 1-5.12-1.6zm5.76-4.86a11.51 11.51 0 0 0 1.6-4.23l.39-1.85Q347 78.76 347 81.9a2.16 2.16 0 0 0 .57 1.47 2.08 2.08 0 0 0 1.6.64 2.75 2.75 0 0 0 2.07-1.47zm2.88-16.71a6.9 6.9 0 0 0 2.12-3.65L359.5 47a2.49 2.49 0 0 0-.64-1.57 2.4 2.4 0 0 0-2-.8q-2.56 0-4.61 3a23.63 23.63 0 0 0-3.2 7.17 28.29 28.29 0 0 0-1.15 7.39c0 2.14.3 3.5.92 4.1a3.15 3.15 0 0 0 2.28.9 4.6 4.6 0 0 0 3.02-1.36z"/><path d="M373.51 70.92q-2.62-2.46-2.62-7.71a31.72 31.72 0 0 1 1.73-9.73 22.57 22.57 0 0 1 5.63-9.18 13.47 13.47 0 0 1 9.92-3.88q7 0 7 6.15a11.42 11.42 0 0 1-2 6.59 15 15 0 0 1-5.45 4.84 17.48 17.48 0 0 1-7.23 2.08 44.32 44.32 0 0 0-.13 2.56c0 2.09.36 3.51 1.09 4.26A4.78 4.78 0 0 0 385 68a10.69 10.69 0 0 0 5.92-1.6 28.73 28.73 0 0 0 5.41-4.87h2.17q-7.1 11.85-17.6 11.84c-3.18.01-5.64-.81-7.39-2.45zm12-15.58a11.74 11.74 0 0 0 3.49-3.91 10.19 10.19 0 0 0 1.31-5c0-1.75-.53-2.62-1.6-2.62-1.53 0-3 1.34-4.51 4A30.81 30.81 0 0 0 381 57a8.41 8.41 0 0 0 4.51-1.66z"/><path d="M413.67 71.3a7.54 7.54 0 0 1-1.82-5.15 16.92 16.92 0 0 1 .32-3c.21-1.13.44-2.23.67-3.29s.4-1.75.48-2c.34-1.49.66-3 1-4.42a18.19 18.19 0 0 0 .45-3.52c0-2.17-.77-3.26-2.3-3.26a3.7 3.7 0 0 0-2.95 1.63 12.81 12.81 0 0 0-2.05 4.26L403.08 73h-9.21l6.78-32h9.22l-.71 3.33a9.76 9.76 0 0 1 7.49-3.59 7.26 7.26 0 0 1 5.18 1.8q1.92 1.78 1.92 5.44a22.11 22.11 0 0 1-.44 4.12c-.3 1.52-.73 3.36-1.28 5.54a97.7 97.7 0 0 0-.93 3.87 14.6 14.6 0 0 0-.42 3 3 3 0 0 0 .58 2 2.42 2.42 0 0 0 2 .71 3.78 3.78 0 0 0 3.07-1.38 16.21 16.21 0 0 0 2.31-4.26h2.69q-2.37 7-5.48 9.44a10.39 10.39 0 0 1-6.43 2.4q-3.92-.04-5.75-2.12z"/><path d="M430 71.46q-1.89-1.92-1.89-5.76a22.52 22.52 0 0 1 .52-4.16L433 41h9.22l-4.61 21.76a7.94 7.94 0 0 0-.26 2.05 2.32 2.32 0 0 0 .61 1.82 3 3 0 0 0 2 .55 5 5 0 0 0 2-.39 6.76 6.76 0 0 1-2.27 4.9 7.16 7.16 0 0 1-4.69 1.69 6.66 6.66 0 0 1-5-1.92zm5.73-35.39a4.87 4.87 0 0 1-1.47-3.58 5 5 0 0 1 1.47-3.62 4.84 4.84 0 0 1 3.59-1.5 5.14 5.14 0 0 1 5.12 5.12 4.83 4.83 0 0 1-1.51 3.58 5 5 0 0 1-3.61 1.47 4.89 4.89 0 0 1-3.6-1.47zm22.59 8.39h-3.58a13.27 13.27 0 0 0-2.66.19c-.57.13-.86.4-.86.83 0 .09.12.18.35.29s.35.48.35 1.12a3.14 3.14 0 0 1-1 2.53 3.67 3.67 0 0 1-2.43.86 3 3 0 0 1-2.08-.74 2.57 2.57 0 0 1-.87-2.08 5.65 5.65 0 0 1 .93-2.88 7.6 7.6 0 0 1 2.6-2.58 7.36 7.36 0 0 1 3.87-1h16.45l-15.68 27.07c.25 0 .72.05 1.4.13a31.68 31.68 0 0 0 3.46.26c1.83 0 2.84-.43 3-1.28a1.37 1.37 0 0 1-.9-.42 1.33 1.33 0 0 1-.32-.93 2.54 2.54 0 0 1 1-1.89 3.8 3.8 0 0 1 2.63-.86 2.63 2.63 0 0 1 2.11.83 3.36 3.36 0 0 1 .7 2.24 6.08 6.08 0 0 1-1 3.14 7.62 7.62 0 0 1-2.75 2.65A7.88 7.88 0 0 1 459 73h-17zm12.86 26.46q-2.62-2.46-2.63-7.71a31.72 31.72 0 0 1 1.73-9.73 22.57 22.57 0 0 1 5.63-9.18 13.47 13.47 0 0 1 9.92-3.88q7.05 0 7 6.15a11.42 11.42 0 0 1-2.05 6.59 14.89 14.89 0 0 1-5.4 4.84 17.48 17.48 0 0 1-7.23 2.08 56.53 56.53 0 0 0-.13 2.56c0 2.09.37 3.51 1.09 4.26a4.78 4.78 0 0 0 3.52 1.1 10.67 10.67 0 0 0 5.92-1.6 28.73 28.73 0 0 0 5.45-4.86h2.18Q489 73.39 478.54 73.38q-4.74 0-7.36-2.46zm12-15.58a11.71 11.71 0 0 0 3.45-3.91 10.09 10.09 0 0 0 1.31-5c0-1.75-.53-2.62-1.6-2.62-1.53 0-3 1.34-4.51 4a30.81 30.81 0 0 0-3.17 9.19 8.44 8.44 0 0 0 4.52-1.66z"/><path d="M498.31 41h9.22l-.83 4a26.35 26.35 0 0 1 3.93-3 7.48 7.48 0 0 1 3.81-1 4 4 0 0 1 3.23 1.41 5.1 5.1 0 0 1 1.19 3.39 4.82 4.82 0 0 1-1.22 3.26 4.24 4.24 0 0 1-3.39 1.41 2.19 2.19 0 0 1-1.89-.67 5.12 5.12 0 0 1-.74-1.95 5.38 5.38 0 0 0-.38-1.22.72.72 0 0 0-.7-.38 4.47 4.47 0 0 0-2.28.54 16.25 16.25 0 0 0-2.4 1.89L500.74 73h-9.21z"/></g><g fill="#373a36"><path d="M116.62 70.92Q114 68.46 114 63.21a31.23 31.23 0 0 1 1.76-9.73 23 23 0 0 1 5.63-9.18 13.28 13.28 0 0 1 9.82-3.88q3.84 0 5.48 1.67a5.82 5.82 0 0 1 1.63 4.22 5.46 5.46 0 0 1-1 3.46 3 3 0 0 1-2.39 1.23 4 4 0 0 1-2.24-.76 11.29 11.29 0 0 0 .77-3.78 3.54 3.54 0 0 0-.45-1.92 1.49 1.49 0 0 0-1.35-.7q-1.92 0-3.84 3.13a29.17 29.17 0 0 0-3.13 7.62 31.09 31.09 0 0 0-1.22 8.06c0 2.09.36 3.51 1.09 4.26a4.76 4.76 0 0 0 3.52 1.09 10.69 10.69 0 0 0 5.92-1.6 29 29 0 0 0 5.41-4.87h2.17q-7.1 11.85-17.6 11.84c-3.15.01-5.61-.81-7.36-2.45z"/><path d="M141.52 72.2a7.81 7.81 0 0 1-3.14-3.07 8.18 8.18 0 0 1-1-3.94 6.75 6.75 0 0 1 1-3.68 6.1 6.1 0 0 1 2.4-2.27 82.41 82.41 0 0 0 4.35-9.06q1.86-4.57 3.52-9.88l9.44-1.3q.33 8.19 1.09 17.72c.22 2.56.32 4.42.32 5.57a9.7 9.7 0 0 1-.25 2.43 25.55 25.55 0 0 0 4.6-3.2h2.69a37.17 37.17 0 0 1-9.79 8 11 11 0 0 1-4.58 2.92 17 17 0 0 1-5.47.92 10.44 10.44 0 0 1-5.18-1.16zm7.1-5.28q1.6-1.41 1.6-4.54a53.53 53.53 0 0 0-.38-5.38c-.43-4.86-.71-8.13-.83-9.79a74.73 74.73 0 0 1-5.19 12.09 2.43 2.43 0 0 1 1.47 2.24 3.27 3.27 0 0 1-.8 2.18 2.5 2.5 0 0 1-2 1 1.71 1.71 0 0 1-1.73-.83 5.16 5.16 0 0 0 .93 3.39 3.69 3.69 0 0 0 3 1.09 5.78 5.78 0 0 0 3.93-1.45z"/><path d="M166 72.2a7.75 7.75 0 0 1-3.14-3.07 8.18 8.18 0 0 1-1-3.94 6.75 6.75 0 0 1 1-3.68 6.1 6.1 0 0 1 2.4-2.27 82.41 82.41 0 0 0 4.35-9.06q1.86-4.57 3.52-9.88l9.41-1.3q.32 8.19 1.09 17.72c.21 2.56.32 4.42.32 5.57a10 10 0 0 1-2 6.4 11.2 11.2 0 0 1-4.9 3.59 16.92 16.92 0 0 1-5.92 1.08A10.42 10.42 0 0 1 166 72.2zm7.1-5.28q1.6-1.41 1.6-4.54a53.53 53.53 0 0 0-.38-5.38c-.43-4.86-.71-8.13-.84-9.79a73.69 73.69 0 0 1-5.18 12.09 2.43 2.43 0 0 1 1.47 2.24 3.32 3.32 0 0 1-.8 2.18 2.5 2.5 0 0 1-2 1c-.9 0-1.48-.28-1.73-.83a5.16 5.16 0 0 0 .93 3.39 3.68 3.68 0 0 0 3 1.09 5.79 5.79 0 0 0 3.9-1.45zm13.35-13.18h12.8l-1.09 5h-12.87zM220 71.3a7.54 7.54 0 0 1-1.82-5.15 16.05 16.05 0 0 1 .32-3c.21-1.13.44-2.23.67-3.29s.39-1.75.48-2c.34-1.49.66-3 1-4.42a18.19 18.19 0 0 0 .45-3.52c0-2.17-.77-3.26-2.31-3.26a3.68 3.68 0 0 0-2.94 1.63 12.62 12.62 0 0 0-2 4.26L209.42 73h-9.22l9.28-43.52L219 28.2l-3.5 16.13a9.76 9.76 0 0 1 7.5-3.59 7.27 7.27 0 0 1 5.18 1.8q1.92 1.78 1.92 5.44a21.36 21.36 0 0 1-.45 4.12 93.34 93.34 0 0 1-1.28 5.54 97.26 97.26 0 0 0-.92 3.87 14.6 14.6 0 0 0-.42 3 3 3 0 0 0 .58 2 2.42 2.42 0 0 0 2 .71 3.8 3.8 0 0 0 3.07-1.38 16.21 16.21 0 0 0 2.32-4.3h2.68q-2.35 7-5.47 9.44a10.39 10.39 0 0 1-6.43 2.4q-3.94 0-5.78-2.08z"/><path d="M236.81 70.82q-2.75-2.43-2.75-7.68a30.61 30.61 0 0 1 1.79-9.66 23 23 0 0 1 5.76-9.18 13.69 13.69 0 0 1 10-3.88q8.19 0 8.19 10.24v.07a2.72 2.72 0 0 0 .7.06 13.14 13.14 0 0 0 4.87-1.12 24.12 24.12 0 0 0 5-2.72l.57 1.73a15.24 15.24 0 0 1-4.85 3.32 24.77 24.77 0 0 1-6.49 2 29.1 29.1 0 0 1-2.6 10.17 17.31 17.31 0 0 1-5.44 6.72 12.22 12.22 0 0 1-7.23 2.37 10.88 10.88 0 0 1-7.52-2.44zm13.12-5.08a15.84 15.84 0 0 0 2.69-4.8 30.83 30.83 0 0 0 1.66-6.76c-1.15-.25-1.72-1.15-1.72-2.68a3.36 3.36 0 0 1 2-3.46 6.64 6.64 0 0 0-.64-2.91 2 2 0 0 0-1.79-.8q-2.12 0-4.1 3.07a27.23 27.23 0 0 0-3.2 7.36 28.17 28.17 0 0 0-1.21 7.55c0 2 .23 3.43.7 4.13a2.86 2.86 0 0 0 2.56 1.06 4.25 4.25 0 0 0 3.05-1.76z"/><path d="M296.24 71.3a7.5 7.5 0 0 1-1.83-5.15 16.92 16.92 0 0 1 .32-3c.21-1.13.44-2.23.67-3.29s.4-1.75.48-2c.34-1.49.66-3 1-4.42a18.19 18.19 0 0 0 .45-3.52c0-2.17-.77-3.26-2.3-3.26A3.71 3.71 0 0 0 292 48.2a12.62 12.62 0 0 0-2 4.26L285.64 73h-9.21l4.67-22.08a6.43 6.43 0 0 0 .19-1.6q0-2.82-1.92-2.82a3.88 3.88 0 0 0-3.1 1.64 11.92 11.92 0 0 0-2.08 4.32L269.84 73h-9.22l6.78-32h9.22l-.7 3.33a10.11 10.11 0 0 1 7.8-3.65q5.64 0 6.6 5.5 3.51-5.43 8.89-5.44a7.28 7.28 0 0 1 5.19 1.8q1.92 1.78 1.92 5.44a21.36 21.36 0 0 1-.45 4.12c-.3 1.52-.73 3.36-1.28 5.54q-.51 2-.93 3.87a14.6 14.6 0 0 0-.42 3 3.07 3.07 0 0 0 .58 2 2.42 2.42 0 0 0 2 .71 3.82 3.82 0 0 0 3.08-1.38 16.53 16.53 0 0 0 2.3-4.26h2.69q-2.37 7-5.47 9.44a10.42 10.42 0 0 1-6.44 2.4q-3.92-.04-5.74-2.12z"/><path d="M313 70.82q-2.76-2.43-2.76-7.68a30.37 30.37 0 0 1 1.8-9.66 22.74 22.74 0 0 1 5.76-9.18 13.67 13.67 0 0 1 10-3.88q8.19 0 8.19 10.24v.07a2.76 2.76 0 0 0 .71.06 13.13 13.13 0 0 0 4.86-1.12 23.87 23.87 0 0 0 5-2.72l.58 1.73a15.47 15.47 0 0 1-4.82 3.32 24.84 24.84 0 0 1-6.5 2 29.1 29.1 0 0 1-2.62 10.18 17.39 17.39 0 0 1-5.44 6.72 12.22 12.22 0 0 1-7.24 2.37 10.85 10.85 0 0 1-7.52-2.45zm13.12-5.08a15.84 15.84 0 0 0 2.68-4.8 30.82 30.82 0 0 0 1.67-6.76c-1.15-.25-1.73-1.15-1.73-2.68a3.36 3.36 0 0 1 2-3.46 6.5 6.5 0 0 0-.64-2.91 2 2 0 0 0-1.79-.8q-2.11 0-4.09 3.07a26.93 26.93 0 0 0-3.2 7.36 27.83 27.83 0 0 0-1.22 7.55c0 2 .23 3.43.7 4.13a2.87 2.87 0 0 0 2.56 1.06 4.26 4.26 0 0 0 3.1-1.76z"/><path d="M345.48 87.4a5.51 5.51 0 0 1-2-4.61 7 7 0 0 1 2.94-5.85 25.28 25.28 0 0 1 7.49-3.68l.77-3.4a10.15 10.15 0 0 1-7.68 3.52 8.14 8.14 0 0 1-6.08-2.49q-2.44-2.51-2.44-7.81a29.19 29.19 0 0 1 1.89-9.95A23 23 0 0 1 346 44.3a12.43 12.43 0 0 1 8.93-3.62 6.87 6.87 0 0 1 3.91.9 2.75 2.75 0 0 1 1.28 2.36v.39l.7-3.33H370l-6.34 29.7a11.37 11.37 0 0 0 4.93-3.08 16.45 16.45 0 0 0 3.13-6.08h2.69q-1.73 5.7-4.67 8.36a15.64 15.64 0 0 1-6.66 3.61l-1 4.61q-1.28 6.21-4.41 8.54A11.58 11.58 0 0 1 350.6 89a8.07 8.07 0 0 1-5.12-1.6zm5.76-4.86a11.51 11.51 0 0 0 1.6-4.23l.39-1.85Q347 78.76 347 81.9a2.16 2.16 0 0 0 .57 1.47 2.08 2.08 0 0 0 1.6.64 2.75 2.75 0 0 0 2.07-1.47zm2.88-16.71a6.9 6.9 0 0 0 2.12-3.65L359.5 47a2.49 2.49 0 0 0-.64-1.57 2.4 2.4 0 0 0-2-.8q-2.56 0-4.61 3a23.63 23.63 0 0 0-3.2 7.17 28.29 28.29 0 0 0-1.15 7.39c0 2.14.3 3.5.92 4.1a3.15 3.15 0 0 0 2.28.9 4.6 4.6 0 0 0 3.02-1.36z"/><path d="M373.51 70.92q-2.62-2.46-2.62-7.71a31.72 31.72 0 0 1 1.73-9.73 22.57 22.57 0 0 1 5.63-9.18 13.47 13.47 0 0 1 9.92-3.88q7 0 7 6.15a11.42 11.42 0 0 1-2 6.59 15 15 0 0 1-5.45 4.84 17.48 17.48 0 0 1-7.23 2.08 44.32 44.32 0 0 0-.13 2.56c0 2.09.36 3.51 1.09 4.26A4.78 4.78 0 0 0 385 68a10.69 10.69 0 0 0 5.92-1.6 28.73 28.73 0 0 0 5.41-4.87h2.17q-7.1 11.85-17.6 11.84c-3.18.01-5.64-.81-7.39-2.45zm12-15.58a11.74 11.74 0 0 0 3.49-3.91 10.19 10.19 0 0 0 1.31-5c0-1.75-.53-2.62-1.6-2.62-1.53 0-3 1.34-4.51 4A30.81 30.81 0 0 0 381 57a8.41 8.41 0 0 0 4.51-1.66z"/><path d="M413.67 71.3a7.54 7.54 0 0 1-1.82-5.15 16.92 16.92 0 0 1 .32-3c.21-1.13.44-2.23.67-3.29s.4-1.75.48-2c.34-1.49.66-3 1-4.42a18.19 18.19 0 0 0 .45-3.52c0-2.17-.77-3.26-2.3-3.26a3.7 3.7 0 0 0-2.95 1.63 12.81 12.81 0 0 0-2.05 4.26L403.08 73h-9.21l6.78-32h9.22l-.71 3.33a9.76 9.76 0 0 1 7.49-3.59 7.26 7.26 0 0 1 5.18 1.8q1.92 1.78 1.92 5.44a22.11 22.11 0 0 1-.44 4.12c-.3 1.52-.73 3.36-1.28 5.54a97.7 97.7 0 0 0-.93 3.87 14.6 14.6 0 0 0-.42 3 3 3 0 0 0 .58 2 2.42 2.42 0 0 0 2 .71 3.78 3.78 0 0 0 3.07-1.38 16.21 16.21 0 0 0 2.31-4.26h2.69q-2.37 7-5.48 9.44a10.39 10.39 0 0 1-6.43 2.4q-3.92-.04-5.75-2.12z"/><path d="M430 71.46q-1.89-1.92-1.89-5.76a22.52 22.52 0 0 1 .52-4.16L433 41h9.22l-4.61 21.76a7.94 7.94 0 0 0-.26 2.05 2.32 2.32 0 0 0 .61 1.82 3 3 0 0 0 2 .55 5 5 0 0 0 2-.39 6.76 6.76 0 0 1-2.27 4.9 7.16 7.16 0 0 1-4.69 1.69 6.66 6.66 0 0 1-5-1.92zm5.73-35.39a4.87 4.87 0 0 1-1.47-3.58 5 5 0 0 1 1.47-3.62 4.84 4.84 0 0 1 3.59-1.5 5.14 5.14 0 0 1 5.12 5.12 4.83 4.83 0 0 1-1.51 3.58 5 5 0 0 1-3.61 1.47 4.89 4.89 0 0 1-3.6-1.47zm22.59 8.39h-3.58a13.27 13.27 0 0 0-2.66.19c-.57.13-.86.4-.86.83 0 .09.12.18.35.29s.35.48.35 1.12a3.14 3.14 0 0 1-1 2.53 3.67 3.67 0 0 1-2.43.86 3 3 0 0 1-2.08-.74 2.57 2.57 0 0 1-.87-2.08 5.65 5.65 0 0 1 .93-2.88 7.6 7.6 0 0 1 2.6-2.58 7.36 7.36 0 0 1 3.87-1h16.45l-15.68 27.07c.25 0 .72.05 1.4.13a31.68 31.68 0 0 0 3.46.26c1.83 0 2.84-.43 3-1.28a1.37 1.37 0 0 1-.9-.42 1.33 1.33 0 0 1-.32-.93 2.54 2.54 0 0 1 1-1.89 3.8 3.8 0 0 1 2.63-.86 2.63 2.63 0 0 1 2.11.83 3.36 3.36 0 0 1 .7 2.24 6.08 6.08 0 0 1-1 3.14 7.62 7.62 0 0 1-2.75 2.65A7.88 7.88 0 0 1 459 73h-17zm12.86 26.46q-2.62-2.46-2.63-7.71a31.72 31.72 0 0 1 1.73-9.73 22.57 22.57 0 0 1 5.63-9.18 13.47 13.47 0 0 1 9.92-3.88q7.05 0 7 6.15a11.42 11.42 0 0 1-2.05 6.59 14.89 14.89 0 0 1-5.4 4.84 17.48 17.48 0 0 1-7.23 2.08 56.53 56.53 0 0 0-.13 2.56c0 2.09.37 3.51 1.09 4.26a4.78 4.78 0 0 0 3.52 1.1 10.67 10.67 0 0 0 5.92-1.6 28.73 28.73 0 0 0 5.45-4.86h2.18Q489 73.39 478.54 73.38q-4.74 0-7.36-2.46zm12-15.58a11.71 11.71 0 0 0 3.45-3.91 10.09 10.09 0 0 0 1.31-5c0-1.75-.53-2.62-1.6-2.62-1.53 0-3 1.34-4.51 4a30.81 30.81 0 0 0-3.17 9.19 8.44 8.44 0 0 0 4.52-1.66z"/><path d="M498.31 41h9.22l-.83 4a26.35 26.35 0 0 1 3.93-3 7.48 7.48 0 0 1 3.81-1 4 4 0 0 1 3.23 1.41 5.1 5.1 0 0 1 1.19 3.39 4.82 4.82 0 0 1-1.22 3.26 4.24 4.24 0 0 1-3.39 1.41 2.19 2.19 0 0 1-1.89-.67 5.12 5.12 0 0 1-.74-1.95 5.38 5.38 0 0 0-.38-1.22.72.72 0 0 0-.7-.38 4.47 4.47 0 0 0-2.28.54 16.25 16.25 0 0 0-2.4 1.89L500.74 73h-9.21z"/></g><path fill="#ccd6dd" d="M40.74 38.35L70 9.11l18.63 18.66L59.4 57z"/><path fill="#68e090" d="M48.74 30.35L3 76.09l18.65 18.65 59.41-59.41-32.32-4.98z"/><path fill="#8899a6" d="M88.34 9.66C80.52 1.83 71.67-2 68.59 1.06l-.09.12h-.06L7.87 61.79a20 20 0 1 0 28.34 28.34l60.57-60.57v-.06a.94.94 0 0 0 .12-.09c3.1-3.08-.73-11.93-8.56-19.75zM30.53 84.45a12 12 0 0 1-17-17l56.29-56.23a43.31 43.31 0 0 0 7.36 9.6 43.19 43.19 0 0 0 9.61 7.37z"/><path fill="#17bf63" d="M80 34.94c-.16 1-7 2-15.25.92S50 32.58 50.23 31s7-2 15.25-.92S80.2 33.34 80 34.94zM30.77 62a2.13 2.13 0 1 1 0-3 2.13 2.13 0 0 1 0 3zm8.89 7a3.48 3.48 0 1 1 0-4.91 3.48 3.48 0 0 1 0 4.91zm4.49-14.26a3.27 3.27 0 1 1 0-4.63 3.29 3.29 0 0 1 0 4.65zm-18.4 23.75a4 4 0 1 1 0-5.64 4 4 0 0 1 0 5.64zM56.28 54a2.83 2.83 0 1 1 0-4 2.83 2.83 0 0 1 0 4zm-3.23-11.54a1.85 1.85 0 1 1 0-2.62 1.86 1.86 0 0 1 0 2.62z"/><ellipse cx="84.3" cy="13.72" fill="#ccd6dd" rx="3.17" ry="12.99" transform="rotate(-45 84.3 13.72)"/></svg>